<svg width="21" height="20" viewBox="0 0 21 20" fill="none" xmlns="http://www.w3.org/2000/svg">
<path fill-rule="evenodd" clip-rule="evenodd" d="M2.5 10C2.50014 8.46045 2.94451 6.95364 3.77979 5.66038C4.61506 4.36712 5.80576 3.34234 7.20901 2.70901C8.61225 2.07568 10.1684 1.8607 11.6908 2.08987C13.2132 2.31904 14.6372 2.98262 15.7918 4.00099C16.9464 5.01936 17.7826 6.34926 18.2002 7.83111C18.6177 9.31296 18.5988 10.8838 18.1457 12.3552C17.6926 13.8265 16.8246 15.1359 15.6458 16.1262C14.467 17.1165 13.0275 17.7456 11.5 17.938V12H13.5C13.7652 12 14.0196 11.8946 14.2071 11.7071C14.3946 11.5196 14.5 11.2652 14.5 11C14.5 10.7348 14.3946 10.4804 14.2071 10.2929C14.0196 10.1054 13.7652 10 13.5 10H11.5V8C11.5 7.73478 11.6054 7.48043 11.7929 7.29289C11.9804 7.10536 12.2348 7 12.5 7H13C13.2652 7 13.5196 6.89464 13.7071 6.70711C13.8946 6.51957 14 6.26522 14 6C14 5.73478 13.8946 5.48043 13.7071 5.29289C13.5196 5.10536 13.2652 5 13 5H12.5C11.7044 5 10.9413 5.31607 10.3787 5.87868C9.81607 6.44129 9.5 7.20435 9.5 8V10H7.5C7.23478 10 6.98043 10.1054 6.79289 10.2929C6.60536 10.4804 6.5 10.7348 6.5 11C6.5 11.2652 6.60536 11.5196 6.79289 11.7071C6.98043 11.8946 7.23478 12 7.5 12H9.5V17.938C7.56661 17.6944 5.78861 16.7535 4.49975 15.292C3.2109 13.8304 2.49982 11.9487 2.5 10ZM10.5 20C16.023 20 20.5 15.523 20.5 10C20.5 4.477 16.023 0 10.5 0C4.977 0 0.5 4.477 0.5 10C0.5 15.523 4.977 20 10.5 20Z" fill="#FAFAFA"/>
</svg>
