<svg width="45" height="44" viewBox="0 0 45 44" fill="none" xmlns="http://www.w3.org/2000/svg">
<path fill-rule="evenodd" clip-rule="evenodd" d="M29.6686 12.6904V24.9316C29.6686 26.2617 29.1663 27.3149 28.3404 28.0143C27.5346 28.6954 26.4951 28.9768 25.5005 28.9347C24.351 28.887 23.1502 28.3874 22.3435 27.4561C22.1355 29.1336 22.735 30.2492 23.0072 30.5434L23.6305 31.2153L22.2867 32.462L21.6634 31.7901C20.9172 30.9853 20.116 29.0887 20.6285 26.6109C19.8442 26.7752 19.0347 26.7771 18.2497 26.6164C17.4275 26.4423 16.619 26.0673 16.0066 25.4376C15.3796 24.7932 15.002 23.9251 15.002 22.8801C15.002 21.3731 15.54 20.2841 16.5016 19.4884C17.3908 18.7523 18.598 18.3105 19.819 17.9154C20.105 17.8238 20.3971 17.7312 20.6954 17.6377C23.0228 16.9071 25.6674 16.0766 28.1598 13.9683L29.6686 12.6904ZM23.2162 24.8748C23.6021 24.1671 24.1329 23.4099 24.8497 22.6133L25.4639 21.9323L24.1008 20.7058L23.4866 21.3868C22.5791 22.3952 21.9173 23.376 21.448 24.3064C20.7586 24.8124 19.6495 25.0388 18.6292 24.8225C18.0765 24.7052 17.6245 24.4714 17.3202 24.1588C17.0305 23.8618 16.8353 23.4548 16.8353 22.8792C16.8353 21.8837 17.1561 21.3254 17.6704 20.8992C18.2561 20.4152 19.1407 20.0613 20.3837 19.6589C20.6544 19.5722 20.9374 19.4826 21.2325 19.3903C23.1383 18.7954 25.5042 18.0566 27.8353 16.5019V24.9316C27.8353 25.7703 27.5355 26.2938 27.157 26.6137C26.7582 26.951 26.1917 27.1288 25.5775 27.1032C24.3602 27.0528 23.2767 26.2562 23.2162 24.8748Z" fill="#13A871" stroke="#13A871" stroke-width="0.5"/>
<path fill-rule="evenodd" clip-rule="evenodd" d="M22.3346 37.5833L21.935 38.4083L21.9313 38.4065L21.9203 38.401L21.8809 38.3817L21.7342 38.3084C21.6077 38.2442 21.4244 38.1489 21.1925 38.0242C18.4454 36.5374 15.8626 34.7652 13.487 32.7369C9.3033 29.1372 4.91797 23.7994 4.91797 17.1637C4.91797 14.1818 5.90522 11.2933 7.59555 9.13367C9.29139 6.96942 11.7306 5.5 14.6007 5.5C18.0071 5.5 20.593 7.43142 22.3346 10.1548C24.0754 7.43233 26.6613 5.5 30.0695 5.5C32.9386 5.5 35.3779 6.96942 37.0728 9.13458C38.765 11.2933 39.7513 14.1808 39.7513 17.1646C39.7513 23.5473 35.3586 28.886 31.1887 32.5389C28.6542 34.7413 25.8941 36.6696 22.9543 38.2919L22.8086 38.3698L22.7691 38.3909L22.7591 38.3964L22.7545 38.3982L22.3346 37.5833ZM9.0393 10.2639C7.61389 12.0844 6.7513 14.5695 6.7513 17.1637C6.7513 22.9772 10.616 27.8492 14.6823 31.3472C17.0331 33.3528 19.5949 35.0968 22.3227 36.5484L22.5922 36.3981C25.2219 34.9003 27.6967 33.1458 29.9806 31.1602C34.0597 27.5852 37.918 22.715 37.918 17.1627C37.918 14.5686 37.0554 12.0844 35.63 10.2639C34.2091 8.44983 32.2658 7.33333 30.0695 7.33333C27.0316 7.33333 24.6795 9.31975 23.1578 12.43L22.3346 14.1139L21.5115 12.4318C19.9898 9.31975 17.6376 7.33333 14.5998 7.33333C12.4035 7.33333 10.4601 8.44983 9.0393 10.2639Z" fill="#13A871" stroke="#13A871" stroke-width="0.5"/>
<path d="M22.3352 37.5833L22.755 38.3982L22.348 38.6072L21.9355 38.4083L22.3352 37.5833Z" fill="#13A871" stroke="#13A871" stroke-width="0.5"/>
</svg>
