<svg width="45" height="44" viewBox="0 0 45 44" fill="none" xmlns="http://www.w3.org/2000/svg">
<path fill-rule="evenodd" clip-rule="evenodd" d="M22.6228 23.8333H22.6961C27.7589 23.8333 31.8628 19.7294 31.8628 14.6667C31.8628 9.60392 27.7589 5.5 22.6961 5.5H22.6228C17.5939 5.53942 13.5294 9.62867 13.5294 14.6667C13.5294 19.7047 17.5939 23.7939 22.6228 23.8333ZM29.9726 15.5833H28.1393C28.0898 16.4202 27.9724 17.2242 27.7964 17.9804H29.2393C29.6195 17.2294 29.8675 16.4185 29.9726 15.5833ZM27.9193 19.8138H27.218C27.0824 20.1462 26.9345 20.4624 26.7744 20.7625C27.1878 20.4847 27.5719 20.1667 27.9193 19.8138ZM25.9054 17.9804C26.1052 17.2498 26.2445 16.4441 26.3023 15.5833H23.6128V17.9804H25.9054ZM23.6128 19.8138H25.2023C25.132 19.9494 25.0593 20.0799 24.9841 20.2052C24.5258 20.9669 24.0519 21.4381 23.6128 21.7048V19.8138ZM21.7794 17.9804V15.5833H19.0313C19.089 16.4441 19.2284 17.2498 19.4282 17.9804H21.7794ZM20.1313 19.8138H21.7794V21.7388C21.3248 21.4793 20.8279 21.0017 20.3494 20.2052C20.2727 20.0769 20.2 19.9464 20.1313 19.8138ZM17.5371 17.9804C17.3557 17.1924 17.241 16.3906 17.1943 15.5833H15.4196C15.5259 16.4358 15.7789 17.2443 16.1529 17.9804H17.5371ZM17.4729 19.8138H18.1146C18.2411 20.1236 18.3783 20.4187 18.5262 20.6993C18.1478 20.4378 17.7958 20.1413 17.4729 19.8138ZM28.1393 13.75C28.0925 12.9428 27.9779 12.1409 27.7964 11.3529H29.2393C29.6212 12.1032 29.8694 12.9144 29.9726 13.75H28.1393ZM27.9193 9.51958H27.218C27.0824 9.18714 26.9345 8.87089 26.7744 8.57083C27.1878 8.84858 27.5719 9.16667 27.9193 9.51958ZM23.6128 9.51958H25.2023C25.1336 9.38692 25.0608 9.25639 24.9841 9.12817C24.5258 8.3655 24.0519 7.89525 23.6128 7.6285V9.51958ZM25.9054 11.3529H23.6128V13.75H26.3023C26.2495 12.9398 26.1166 12.1369 25.9054 11.3529ZM21.7794 7.59458V9.51958H20.1313C20.2022 9.38392 20.2749 9.25344 20.3494 9.12817C20.827 8.33158 21.3248 7.85492 21.7794 7.59458ZM21.7794 11.352H19.4282C19.2284 12.0826 19.089 12.8883 19.0313 13.7491H21.7794V11.352ZM18.5253 8.63317C18.3786 8.91367 18.242 9.20883 18.1155 9.51867H17.4729C17.7955 9.19114 18.1472 8.89467 18.5253 8.63317ZM17.538 11.352H16.1539C15.7736 12.103 15.5256 12.9139 15.4205 13.7491H17.1952C17.2447 12.9112 17.362 12.1083 17.538 11.352ZM8.66927 15.5833C7.71777 15.5613 6.76261 16.1452 6.45369 17.0546C6.37669 17.2819 6.33452 17.5789 6.30427 17.8493C6.27219 18.1445 6.24744 18.4992 6.22819 18.8852C6.18861 19.7689 6.16814 20.6534 6.16677 21.538C6.15944 23.3878 6.20619 25.3128 6.27311 25.9096C6.39044 26.9546 6.99177 27.9281 7.51427 28.7751L7.57294 28.8695C7.73152 29.1262 7.88827 29.3819 8.04227 29.645C8.73344 30.8284 9.48511 31.6259 10.1662 32.3492L10.1818 32.3647C10.5649 32.7708 10.9197 33.1485 11.2543 33.5692C10.9303 33.9103 10.7498 34.3629 10.7501 34.8333V36.6667C10.7501 37.1529 10.9433 37.6192 11.2871 37.963C11.6309 38.3068 12.0972 38.5 12.5834 38.5H19.9168C20.403 38.5 20.8693 38.3068 21.2131 37.963C21.5569 37.6192 21.7501 37.1529 21.7501 36.6667V34.8333C21.7501 34.3693 21.5741 33.9226 21.2577 33.5832C20.9413 33.2438 20.508 33.0371 20.0451 33.0046C19.9214 31.9633 19.7609 30.5571 19.7463 30.1565C19.7334 29.8118 19.6179 29.4754 19.5098 29.2197C19.3969 28.9558 19.2664 28.6998 19.1193 28.4533C18.9681 28.1973 18.8067 27.9474 18.6353 27.7044L18.5995 27.6549L18.5904 27.6412L18.5867 27.6366L18.5849 27.6338L18.5757 27.621L15.602 23.8718L15.5745 23.8443V23.8425L15.5709 23.8388L15.5489 23.815L15.4618 23.7169C15.3565 23.5965 15.2544 23.4733 15.1556 23.3475C14.8749 22.9971 14.6301 22.6194 14.425 22.22C14.216 21.791 13.82 21.3794 13.2123 21.3492C12.6944 21.3217 12.2883 21.5967 12.0518 21.8084C11.9215 21.9258 11.8027 22.0553 11.697 22.1952L11.6558 21.6434L11.6512 21.5829C11.5614 20.3748 11.4523 18.9127 11.0975 17.7421C10.6814 16.3726 9.75644 15.6099 8.66836 15.5842M18.1971 33.0009C18.0779 31.9926 17.9294 30.6753 17.9129 30.2243L17.8955 30.1446C17.8746 30.0719 17.8492 30.0006 17.8194 29.931C17.7375 29.7415 17.6429 29.5577 17.5362 29.381C17.413 29.1705 17.2806 28.9656 17.1393 28.7668L17.1154 28.7329L14.2114 25.0718L14.1949 25.0534L14.0813 24.9251C13.9542 24.7795 13.8311 24.6307 13.7119 24.4787C13.4643 24.1662 13.2374 23.838 13.0326 23.496L13.0262 23.5061C12.9437 23.6592 12.8979 23.7994 12.8841 23.8911C12.8337 24.2156 12.8594 24.4392 12.885 24.5602C12.8933 24.5988 12.904 24.6368 12.9171 24.6739V24.6767L14.5964 28.0115L13.0372 28.9639L13.0143 28.9328L12.951 28.8457C12.6238 28.3943 12.2999 27.9406 11.9794 27.4844C11.4229 26.6924 10.7574 25.7208 10.4293 25.1378C10.1836 24.7023 10.0699 24.1257 9.99752 23.6042C9.92299 23.0047 9.86644 22.4031 9.82794 21.8002L9.8261 21.78C9.73077 20.4985 9.63177 19.2317 9.3421 18.2756C9.21561 17.8585 9.05244 17.6486 8.93511 17.5468C8.85078 17.4679 8.74069 17.4223 8.62527 17.4185C8.37502 17.4121 8.20911 17.5853 8.18802 17.6477C8.18619 17.6532 8.17794 17.6843 8.16602 17.7522C8.14936 17.8504 8.13591 17.9491 8.12569 18.0482C8.09911 18.2939 8.07619 18.6092 8.05786 18.9777C8.02015 19.8334 8.00089 20.6898 8.00011 21.5462C7.99186 23.4153 8.04227 25.2331 8.09544 25.7061C8.16144 26.2973 8.52994 26.9289 9.13311 27.9088L9.13586 27.9125C9.29169 28.1655 9.45944 28.4377 9.62536 28.7219C10.2056 29.7156 10.8308 30.382 11.5155 31.108L11.5311 31.1245C12.0408 31.6653 12.5944 32.252 13.1169 33.0009H18.1971ZM19.9168 36.6667V34.8333H12.5834V36.6667H19.9168ZM38.8799 17.0546C38.57 16.1452 37.6158 15.5613 36.6643 15.5842C35.5771 15.6099 34.6522 16.3726 34.236 17.7421C33.8813 18.9127 33.7722 20.3748 33.6824 21.5829L33.6778 21.6434L33.6365 22.1952C33.5265 22.0504 33.4083 21.9215 33.2818 21.8084C33.0453 21.5976 32.6401 21.3226 32.1213 21.3483C31.5135 21.3794 31.1175 21.791 30.9085 22.2191C30.7034 22.6185 30.4587 22.9962 30.1779 23.3466C30.0518 23.5071 29.9203 23.6633 29.7838 23.815L29.7627 23.8388L29.759 23.8434L29.7315 23.8718L26.7588 27.621L26.7487 27.6338L26.7469 27.6366L26.7441 27.6412L26.734 27.6549C26.7249 27.6665 26.7129 27.683 26.6983 27.7044C26.526 27.9468 26.3645 28.1967 26.2143 28.4533C26.0668 28.6997 25.936 28.9558 25.8229 29.2197C25.7156 29.4754 25.6001 29.8118 25.5873 30.1565C25.5726 30.5571 25.4131 31.9633 25.2884 33.0046C24.8256 33.0371 24.3922 33.2438 24.0758 33.5832C23.7594 33.9226 23.5835 34.3693 23.5834 34.8333V36.6667C23.5834 37.1529 23.7766 37.6192 24.1204 37.963C24.4642 38.3068 24.9305 38.5 25.4168 38.5H32.7501C33.2363 38.5 33.7027 38.3068 34.0465 37.963C34.3903 37.6192 34.5834 37.1529 34.5834 36.6667V34.8333C34.5838 34.3624 34.4029 33.9095 34.0784 33.5683C34.4129 33.1485 34.7677 32.7708 35.1509 32.3647L35.1664 32.3483C35.8475 31.6259 36.5992 30.8284 37.2903 29.645C37.4443 29.3819 37.602 29.1271 37.7597 28.8695L37.8183 28.7751C38.3409 27.9281 38.9422 26.9546 39.0595 25.9096C39.1264 25.3128 39.1732 23.3878 39.1659 21.538C39.1648 20.6534 39.1446 19.7689 39.1054 18.8852C39.0898 18.5392 39.0644 18.1938 39.0293 17.8493C38.9999 17.5789 38.9578 17.281 38.8799 17.0546ZM32.2166 33C32.7391 32.2511 33.2919 31.6644 33.8024 31.1236L33.8171 31.1071C34.5019 30.3811 35.1279 29.7138 35.7073 28.721C35.8723 28.4368 36.04 28.1655 36.1968 27.9116L36.1995 27.907C36.8036 26.928 37.1712 26.2964 37.2372 25.7052C37.2904 25.2322 37.3399 23.4144 37.3325 21.5453C37.3289 20.6232 37.3114 19.712 37.2748 18.9768C37.2564 18.6083 37.2335 18.293 37.2069 18.0473C37.1967 17.9482 37.1833 17.8495 37.1666 17.7513C37.1613 17.716 37.154 17.6811 37.1446 17.6467C37.1235 17.5844 36.9576 17.4112 36.7083 17.4176C36.5925 17.4212 36.4821 17.4668 36.3975 17.5459C36.2802 17.6468 36.117 17.8576 35.9905 18.2747C35.7009 19.2298 35.6019 20.4976 35.5065 21.7791L35.5047 21.7992C35.4589 22.4263 35.4112 23.0588 35.3351 23.6033C35.2636 24.1248 35.149 24.7014 34.9043 25.1378C34.5752 25.7198 33.9097 26.6915 33.3533 27.4844C33.0327 27.9402 32.7088 28.3937 32.3816 28.8447L32.3174 28.9318L32.2954 28.963L30.7362 28.0097L32.4146 24.6758L32.4155 24.673C32.4286 24.6358 32.4394 24.5979 32.4476 24.5593C32.4733 24.4383 32.4989 24.2147 32.4485 23.8902C32.4221 23.755 32.3741 23.625 32.3064 23.5052L32.3 23.4951C32.0745 23.8755 31.8261 24.2165 31.6217 24.4777C31.4669 24.6748 31.3055 24.8665 31.1377 25.0525L31.1203 25.0708L28.2172 28.732L28.1934 28.7659L28.0953 28.9062C28.0128 29.0281 27.9046 29.1949 27.7964 29.3801C27.6897 29.5568 27.5951 29.7406 27.5132 29.9301C27.4777 30.0156 27.4524 30.0865 27.4371 30.1427C27.4301 30.1694 27.4243 30.1963 27.4197 30.2234C27.4032 30.6744 27.2547 31.9926 27.1355 33H32.2166ZM25.4168 36.6667V34.8333H32.7501V36.6667H25.4168Z" fill="#13A871"/>
</svg>
