<svg width="44" height="44" viewBox="0 0 44 44" fill="none" xmlns="http://www.w3.org/2000/svg">
<path d="M17.2147 11C13.7222 11 11.1738 14.6502 11.1738 18.5863C11.1738 19.5002 11.2957 20.3802 11.5167 21.2236H14.5297L17.7555 15.5833L19.7712 22.5216L22.2371 19.4022H27.4639C27.588 19.4011 27.711 19.4245 27.8261 19.471C27.9411 19.5175 28.0458 19.5862 28.1343 19.6732C28.2227 19.7602 28.2932 19.8638 28.3416 19.978C28.39 20.0923 28.4154 20.2149 28.4163 20.339C28.4153 20.463 28.3898 20.5856 28.3413 20.6997C28.2929 20.8138 28.2224 20.9173 28.134 21.0042C28.0455 21.0911 27.9408 21.1598 27.8259 21.2062C27.7109 21.2527 27.5879 21.276 27.4639 21.2749H23.1693L18.971 26.5833L17.178 20.4123L15.6435 23.0954H12.184C14.9688 29.2518 22.5451 33 22.5451 33C22.5451 33 33.9163 27.0114 33.9163 18.5863C33.9163 14.6511 31.3671 11 27.8755 11C25.4518 11 23.6542 12.6381 22.5451 14.96C21.435 12.639 19.6374 11 17.2147 11Z" fill="#13A871"/>
<path fill-rule="evenodd" clip-rule="evenodd" d="M5.5 8.25C5.5 7.52065 5.78973 6.82118 6.30546 6.30546C6.82118 5.78973 7.52065 5.5 8.25 5.5H35.75C36.4793 5.5 37.1788 5.78973 37.6945 6.30546C38.2103 6.82118 38.5 7.52065 38.5 8.25V35.75C38.5 36.4793 38.2103 37.1788 37.6945 37.6945C37.1788 38.2103 36.4793 38.5 35.75 38.5H8.25C7.52065 38.5 6.82118 38.2103 6.30546 37.6945C5.78973 37.1788 5.5 36.4793 5.5 35.75V8.25ZM7.33333 8.25C7.33333 8.00688 7.42991 7.77373 7.60182 7.60182C7.77373 7.42991 8.00688 7.33333 8.25 7.33333H35.75C35.9931 7.33333 36.2263 7.42991 36.3982 7.60182C36.5701 7.77373 36.6667 8.00688 36.6667 8.25V35.75C36.6667 35.9931 36.5701 36.2263 36.3982 36.3982C36.2263 36.5701 35.9931 36.6667 35.75 36.6667H8.25C8.00688 36.6667 7.77373 36.5701 7.60182 36.3982C7.42991 36.2263 7.33333 35.9931 7.33333 35.75V23.0963H12.1779L11.5088 21.2227H7.33333V8.25Z" fill="#13A871"/>
</svg>
