<svg width="25" height="24" viewBox="0 0 25 24" fill="none" xmlns="http://www.w3.org/2000/svg">
<path d="M16.5001 12C16.5001 11.0747 16.1792 10.1779 15.5921 9.46258C15.005 8.74725 14.1881 8.2576 13.2805 8.07706C12.3729 7.89652 11.4308 8.03625 10.6146 8.47244C9.79849 8.90864 9.15884 9.61432 8.80466 10.4692C8.45048 11.3242 8.40368 12.2755 8.67224 13.161C8.94079 14.0466 9.50809 14.8116 10.2775 15.3258C11.0468 15.84 11.9707 16.0716 12.8917 15.981C13.8126 15.8904 14.6736 15.4833 15.3281 14.829C15.6995 14.47 15.9948 14.0397 16.1961 13.5639C16.3975 13.0882 16.5009 12.5767 16.5001 12.06L16.4991 11.997L16.5001 12ZM18.6601 12C18.6553 13.4185 18.1591 14.7915 17.256 15.8853C16.3529 16.9791 15.0987 17.7262 13.7068 17.9994C12.3149 18.2726 10.8713 18.0551 9.62173 17.3838C8.37217 16.7125 7.39382 15.6289 6.8532 14.3175C6.31257 13.0061 6.24308 11.5479 6.65653 10.191C7.06999 8.83418 7.94084 7.6625 9.1209 6.87541C10.301 6.08833 11.7173 5.73447 13.1289 5.87406C14.5405 6.01365 15.8601 6.63807 16.8631 7.64105C17.4327 8.19376 17.8854 8.85534 18.1943 9.58647C18.5031 10.3176 18.6619 11.1034 18.6611 11.897L18.6601 12.006V12ZM20.3471 5.59405V5.59605C20.3472 5.9292 20.2318 6.25209 20.0205 6.50969C19.8092 6.76729 19.5152 6.94367 19.1884 7.00876C18.8617 7.07385 18.5225 7.02364 18.2286 6.86668C17.9348 6.70971 17.7044 6.45571 17.5769 6.14795C17.4493 5.84019 17.4324 5.49771 17.529 5.17887C17.6256 4.86003 17.8298 4.58456 18.1068 4.3994C18.3837 4.21424 18.7163 4.13084 19.0479 4.16341C19.3795 4.19599 19.6895 4.34252 19.9251 4.57805C20.1811 4.82905 20.3401 5.17905 20.3401 5.56605V5.59505L20.3471 5.59405ZM12.5071 2.15405L11.3121 2.14605C10.5881 2.14071 10.0384 2.14071 9.66309 2.14605C9.28776 2.15138 8.78509 2.16705 8.15509 2.19305C7.57009 2.21305 7.01509 2.27105 6.47209 2.36305L6.54509 2.35305C6.12009 2.42305 5.74309 2.52305 5.38209 2.65605L5.42509 2.64205C4.9151 2.84706 4.45132 3.15212 4.06111 3.53924C3.6709 3.92636 3.36216 4.3877 3.15309 4.89605L3.14309 4.92305C3.01474 5.27436 2.91965 5.63695 2.85909 6.00605L2.85409 6.04305C2.76515 6.5685 2.71203 7.09939 2.69509 7.63205L2.69409 7.65305C2.66809 8.28371 2.65243 8.78638 2.64709 9.16105C2.64176 9.53571 2.64176 10.0854 2.64709 10.81C2.65243 11.5347 2.65509 11.933 2.65509 12.005C2.65509 12.077 2.65243 12.4754 2.64709 13.2C2.64176 13.9247 2.64176 14.4744 2.64709 14.849C2.65243 15.2237 2.66809 15.7264 2.69409 16.357C2.71409 16.942 2.77209 17.497 2.86409 18.04L2.85409 17.967C2.92409 18.392 3.02409 18.769 3.15709 19.13L3.14309 19.087C3.34811 19.597 3.65317 20.0608 4.04029 20.451C4.42741 20.8412 4.88875 21.15 5.39709 21.359L5.42409 21.369C5.74209 21.488 6.11909 21.588 6.50709 21.653L6.54409 21.658C7.01309 21.74 7.56809 21.798 8.13209 21.817L8.15309 21.818C8.78376 21.844 9.28643 21.8597 9.66109 21.865C10.0358 21.8704 10.5854 21.8704 11.3101 21.865L12.4981 21.841L13.6931 21.849C14.4171 21.8544 14.9668 21.8544 15.3421 21.849C15.7174 21.8437 16.2201 21.828 16.8501 21.802C17.4351 21.782 17.9901 21.724 18.5331 21.632L18.4601 21.642C18.8851 21.572 19.2621 21.472 19.6231 21.339L19.5801 21.353C20.0901 21.148 20.5539 20.843 20.9441 20.4559C21.3343 20.0687 21.643 19.6074 21.8521 19.099L21.8621 19.072C21.9811 18.754 22.0811 18.377 22.1461 17.989L22.1511 17.952C22.2331 17.483 22.2911 16.928 22.3101 16.364L22.3111 16.343C22.3371 15.7124 22.3528 15.2097 22.3581 14.835C22.3634 14.4604 22.3634 13.9107 22.3581 13.186C22.3528 12.4614 22.3501 12.063 22.3501 11.991C22.3501 11.919 22.3528 11.5207 22.3581 10.796C22.3634 10.0714 22.3634 9.52171 22.3581 9.14705C22.3528 8.77238 22.3371 8.26971 22.3111 7.63905C22.2911 7.05405 22.2331 6.49905 22.1411 5.95605L22.1511 6.02905C22.0877 5.63255 21.9862 5.24309 21.8481 4.86605L21.8621 4.90905C21.6571 4.39905 21.352 3.93527 20.9649 3.54506C20.5778 3.15485 20.1164 2.84611 19.6081 2.63705L19.5811 2.62705C19.2298 2.49869 18.8672 2.40361 18.4981 2.34305L18.4611 2.33805C17.936 2.24915 17.4054 2.19603 16.8731 2.17905L16.8521 2.17805C16.2214 2.15205 15.7188 2.13638 15.3441 2.13105C14.9694 2.12571 14.4198 2.12571 13.6951 2.13105L12.5071 2.15405ZM24.5001 12C24.5001 14.3854 24.4734 16.0364 24.4201 16.953C24.4674 17.882 24.3189 18.8106 23.9844 19.6785C23.6498 20.5465 23.1367 21.3344 22.4781 21.9914C21.8196 22.6483 21.0304 23.1596 20.1616 23.492C19.2929 23.8244 18.364 23.9706 17.4351 23.921L17.4511 23.922C16.5344 23.9754 14.8834 24.002 12.4981 24.002C10.1128 24.002 8.46176 23.9754 7.54509 23.922C6.61611 23.9693 5.68756 23.8209 4.81962 23.4863C3.95168 23.1518 3.1637 22.6386 2.50677 21.9801C1.84983 21.3216 1.33859 20.5323 1.00616 19.6636C0.673743 18.7948 0.527562 17.8659 0.577094 16.937L0.576094 16.953C0.52276 16.0364 0.496094 14.3854 0.496094 12C0.496094 9.61471 0.52276 7.96371 0.576094 7.04705C0.528825 6.11806 0.677269 5.18952 1.01181 4.32157C1.34634 3.45363 1.85951 2.66566 2.51805 2.00872C3.17659 1.35178 3.96581 0.840539 4.83457 0.508117C5.70332 0.175696 6.63223 0.0295148 7.56109 0.0790469L7.54509 0.0780469C8.46176 0.0247135 10.1128 -0.00195312 12.4981 -0.00195312C14.8834 -0.00195312 16.5344 0.0247135 17.4511 0.0780469C18.3801 0.0307783 19.3086 0.179222 20.1766 0.51376C21.0445 0.848297 21.8325 1.36146 22.4894 2.02C23.1464 2.67854 23.6576 3.46776 23.99 4.33652C24.3224 5.20528 24.4686 6.13418 24.4191 7.06305L24.4201 7.04705C24.4734 7.96305 24.5001 9.61405 24.5001 12Z" fill="#FAFAFA"/>
</svg>
