<svg width="23" height="22" viewBox="0 0 23 22" fill="none" xmlns="http://www.w3.org/2000/svg">
<path d="M12.0349 15.686L12.0346 15.6862C11.8717 15.7791 11.6875 15.828 11.5 15.828C11.3125 15.828 11.1283 15.7791 10.9654 15.6862L10.9651 15.686C10.8486 15.6209 9.39892 14.776 7.97892 13.2204C6.55899 11.6648 5.17188 9.40218 5.17188 6.5C5.17188 4.82168 5.83859 3.21209 7.02534 2.02534C8.21209 0.838586 9.82168 0.171875 11.5 0.171875C13.1783 0.171875 14.7879 0.838586 15.9747 2.02534C17.1614 3.21209 17.8281 4.82168 17.8281 6.5C17.8281 9.40218 16.441 11.6648 15.0211 13.2204C13.6011 14.776 12.1514 15.6209 12.0349 15.686ZM11.4729 13.442L11.5002 13.4614L11.5273 13.4418C12.7668 12.5514 15.6719 10.0875 15.6719 6.5C15.6719 5.39355 15.2323 4.33242 14.45 3.55004C13.6676 2.76766 12.6065 2.32812 11.5 2.32812C10.3935 2.32812 9.33242 2.76766 8.55004 3.55004C7.76766 4.33242 7.32812 5.39355 7.32812 6.5C7.32812 10.1062 10.2256 12.556 11.4729 13.442ZM19.0351 12.6932L19.0356 12.6933C19.7906 13.0041 20.6153 13.44 21.2506 14.026C21.8853 14.6116 22.3281 15.3441 22.3281 16.25C22.3281 17.2428 21.779 18.0278 21.0576 18.631C20.3362 19.2344 19.4475 19.6514 18.7816 19.9075L18.7816 19.9075C16.8205 20.6624 14.2353 21.0781 11.5 21.0781C8.80209 21.0781 6.08966 20.66 4.05353 19.8442C2.0136 19.0269 0.671875 17.8193 0.671875 16.25C0.671875 15.3441 1.11471 14.6116 1.74944 14.026C2.38468 13.44 3.20937 13.0041 3.9644 12.6934L3.96487 12.6932C4.09609 12.6375 4.23704 12.6084 4.37958 12.6075C4.52212 12.6067 4.66341 12.6341 4.79528 12.6882C4.92715 12.7423 5.04698 12.8221 5.14783 12.9228C5.24869 13.0235 5.32858 13.1432 5.38286 13.275C5.43715 13.4068 5.46476 13.5481 5.4641 13.6906C5.46345 13.8331 5.43453 13.9741 5.37903 14.1054C5.32352 14.2367 5.24254 14.3557 5.14075 14.4555C5.03897 14.5553 4.91841 14.6339 4.78604 14.6868L4.78558 14.687C4.12007 14.9611 3.63339 15.2559 3.31217 15.5279C3.15159 15.6638 3.0314 15.7949 2.951 15.9158C2.87101 16.0361 2.82812 16.1498 2.82812 16.25C2.82812 16.357 2.87535 16.4781 2.96366 16.6058C3.05242 16.7342 3.18518 16.873 3.36269 17.0164C3.71778 17.3033 4.2561 17.6121 4.99286 17.895C6.71535 18.5576 9.02672 18.9219 11.5 18.9219C13.9733 18.9219 16.2847 18.5539 18.0071 17.895L18.0071 17.895C18.7434 17.6121 19.2817 17.3033 19.637 17.0164C19.8145 16.873 19.9474 16.7342 20.0362 16.6058C20.1246 16.4781 20.1719 16.357 20.1719 16.25C20.1719 16.1498 20.129 16.0361 20.049 15.9158C19.9686 15.7949 19.8484 15.6638 19.6878 15.5279C19.3666 15.2559 18.8799 14.9611 18.2144 14.687L18.214 14.6868C18.0816 14.6339 17.961 14.5553 17.8592 14.4555C17.7575 14.3557 17.6765 14.2367 17.621 14.1054C17.5655 13.9741 17.5366 13.8331 17.5359 13.6906C17.5352 13.5481 17.5629 13.4068 17.6171 13.275C17.6714 13.1432 17.7513 13.0235 17.8522 12.9228C17.953 12.8221 18.0729 12.7423 18.2047 12.6882C18.3366 12.6341 18.4779 12.6067 18.6204 12.6075C18.763 12.6084 18.9039 12.6375 19.0351 12.6932ZM9.67188 6.5C9.67188 6.13843 9.77909 5.78498 9.97997 5.48435C10.1808 5.18371 10.4664 4.9494 10.8004 4.81103C11.1345 4.67267 11.502 4.63646 11.8567 4.707C12.2113 4.77754 12.537 4.95165 12.7927 5.20732C13.0483 5.46299 13.2225 5.78873 13.293 6.14335C13.3635 6.49797 13.3273 6.86555 13.189 7.19959C13.0506 7.53364 12.8163 7.81915 12.5157 8.02003C12.215 8.22091 11.8616 8.32812 11.5 8.32812C11.0152 8.32812 10.5502 8.13552 10.2073 7.79268C9.86448 7.44984 9.67188 6.98485 9.67188 6.5Z" fill="#B6E4D3" stroke="#B6E4D3" stroke-width="0.09375"/>
</svg>
