<svg width="72" height="37" viewBox="0 0 72 37" fill="none" xmlns="http://www.w3.org/2000/svg">
<path d="M63.1251 32.4519C61.3044 32.4519 59.7673 32.0497 58.514 31.2452C57.2606 30.4322 56.3121 29.3101 55.6685 27.8789C55.0249 26.4477 54.7031 24.7964 54.7031 22.9248C54.7031 21.0533 55.0249 19.4019 55.6685 17.9707C56.3121 16.5395 57.2606 15.4217 58.514 14.6172C59.7673 13.8042 61.3044 13.3977 63.1251 13.3977C64.9543 13.3977 66.4913 13.8042 67.7362 14.6172C68.9896 15.4217 69.938 16.5395 70.5816 17.9707C71.2337 19.4019 71.5598 21.0533 71.5598 22.9248C71.5598 24.7964 71.2337 26.4477 70.5816 27.8789C69.938 29.3101 68.9896 30.4322 67.7362 31.2452C66.4913 32.0497 64.9543 32.4519 63.1251 32.4519ZM63.1251 30.6608C64.5563 30.6608 65.7503 30.3348 66.7073 29.6827C67.6642 29.0306 68.3798 28.1245 68.8541 26.9643C69.3368 25.7957 69.5781 24.4492 69.5781 22.9248C69.5781 21.4005 69.3368 20.0582 68.8541 18.898C68.3798 17.7378 67.6642 16.8317 66.7073 16.1796C65.7503 15.5275 64.5563 15.1973 63.1251 15.1888C61.6939 15.1888 60.5041 15.5148 59.5556 16.1669C58.6071 16.819 57.8915 17.7294 57.4088 18.898C56.9346 20.0582 56.6932 21.4005 56.6848 22.9248C56.6763 24.4492 56.9092 25.7914 57.3834 26.9516C57.8661 28.1033 58.586 29.0095 59.5429 29.67C60.4998 30.3221 61.6939 30.6524 63.1251 30.6608Z" fill="#13A871"/>
<path d="M46.3038 32.0709C46.0998 32.0709 45.9344 31.9055 45.9344 31.7015V15.9392C45.9344 15.7353 45.7691 15.5699 45.5651 15.5699H39.9142C39.7103 15.5699 39.5449 15.4046 39.5449 15.2006V14.1481C39.5449 13.9442 39.7103 13.7788 39.9142 13.7788H53.822C54.0259 13.7788 54.1913 13.9442 54.1913 14.1481V15.2006C54.1913 15.4046 54.0259 15.5699 53.822 15.5699H48.1711C47.9671 15.5699 47.8018 15.7353 47.8018 15.9392V31.7015C47.8018 31.9055 47.6364 32.0709 47.4324 32.0709H46.3038Z" fill="#13A871"/>
<path d="M31.4169 32.0709C31.2129 32.0709 31.0476 31.9055 31.0476 31.7015V24.51C31.0476 24.4452 31.0305 24.3815 30.9981 24.3254L25.2318 14.3327C25.0897 14.0865 25.2674 13.7788 25.5516 13.7788H26.8586C26.9904 13.7788 27.1122 13.8491 27.1783 13.9632L31.6671 21.7229C31.8095 21.9691 32.165 21.9687 32.3068 21.7222L36.7716 13.9639C36.8375 13.8494 36.9596 13.7788 37.0917 13.7788H38.3994C38.6834 13.7788 38.8611 14.0859 38.7197 14.3321L32.9767 24.3256C32.9445 24.3816 32.9276 24.4451 32.9276 24.5096V31.7015C32.9276 31.9055 32.7622 32.0709 32.5583 32.0709H31.4169Z" fill="#13A871"/>
<circle cx="12.8522" cy="20.9366" r="8.50635" stroke="url(#paint0_linear_70_657)" stroke-width="0.738642"/>
<path d="M14.7882 11.5602C16.7263 10.5237 17.4572 8.11234 16.4207 6.1742C15.3843 4.23606 12.9728 3.50512 11.0347 4.54161C9.09656 5.5781 8.36563 7.98951 9.40212 9.92765C10.4386 11.8658 12.85 12.5967 14.7882 11.5602Z" fill="#0044F1"/>
<path d="M5.23442 14.5936L4.72204 15.5746C4.55494 15.8945 4.68035 16.2892 5.00154 16.454L12.7456 20.4284C13.0639 20.5917 13.4442 20.5779 13.7497 20.3919L22.596 15.0058C23.9476 14.1829 24.1773 12.3144 23.0654 11.1883C22.253 10.3657 20.9765 10.2222 20.002 10.8441L12.4638 15.6532L9.96118 13.6186C8.43183 12.3753 6.14678 12.8468 5.23442 14.5936Z" fill="#13A871"/>
<path d="M23.9768 18.7967L23.4213 17.8395C23.2401 17.5274 22.8396 17.4224 22.5286 17.6057L15.031 22.0274C14.7228 22.2092 14.5313 22.538 14.5253 22.8957L14.3506 33.2512C14.3239 34.8333 15.7806 36.0261 17.3263 35.688C18.4557 35.4409 19.2591 34.4387 19.2544 33.2826L19.2178 24.3411L22.2751 23.313C24.1433 22.6848 24.9658 20.5016 23.9768 18.7967Z" fill="#0044F1"/>
<path d="M2.72771 19.2625L3.26869 18.297C3.44502 17.9822 3.84414 17.8714 4.15777 18.0498L11.7208 22.3587C12.0316 22.5359 12.2281 22.8618 12.2394 23.2193L12.5692 33.5709C12.6196 35.1524 11.181 36.367 9.63024 36.0521C8.49724 35.8221 7.67896 34.8319 7.66631 33.6758L7.5688 24.7347L4.49653 23.7526C2.61952 23.1525 1.76421 20.9819 2.72771 19.2625Z" fill="#0044F1"/>
<defs>
<linearGradient id="paint0_linear_70_657" x1="12.8522" y1="13.4021" x2="12.8522" y2="26.1219" gradientUnits="userSpaceOnUse">
<stop offset="0.47123" stop-color="#13A871"/>
<stop offset="0.88623" stop-color="#0044F1"/>
</linearGradient>
</defs>
</svg>
