<svg width="73" height="36" viewBox="0 0 73 36" fill="none" xmlns="http://www.w3.org/2000/svg">
<path d="M63.6251 31.4839C61.8044 31.4839 60.2673 31.0817 59.014 30.2771C57.7606 29.4642 56.8121 28.3421 56.1685 26.9109C55.5249 25.4797 55.2031 23.8283 55.2031 21.9568C55.2031 20.0853 55.5249 18.4339 56.1685 17.0027C56.8121 15.5715 57.7606 14.4537 59.014 13.6492C60.2673 12.8362 61.8044 12.4297 63.6251 12.4297C65.4543 12.4297 66.9913 12.8362 68.2362 13.6492C69.4896 14.4537 70.438 15.5715 71.0816 17.0027C71.7337 18.4339 72.0598 20.0853 72.0598 21.9568C72.0598 23.8283 71.7337 25.4797 71.0816 26.9109C70.438 28.3421 69.4896 29.4642 68.2362 30.2771C66.9913 31.0817 65.4543 31.4839 63.6251 31.4839ZM63.6251 29.6928C65.0563 29.6928 66.2503 29.3668 67.2073 28.7147C68.1642 28.0626 68.8798 27.1565 69.3541 25.9963C69.8368 24.8276 70.0781 23.4811 70.0781 21.9568C70.0781 20.4325 69.8368 19.0902 69.3541 17.93C68.8798 16.7698 68.1642 15.8637 67.2073 15.2116C66.2503 14.5595 65.0563 14.2293 63.6251 14.2208C62.1939 14.2208 61.0041 14.5468 60.0556 15.1989C59.1071 15.851 58.3915 16.7613 57.9088 17.93C57.4346 19.0902 57.1932 20.4325 57.1848 21.9568C57.1763 23.4811 57.4092 24.8234 57.8834 25.9836C58.3661 27.1353 59.086 28.0414 60.0429 28.702C60.9998 29.3541 62.1939 29.6843 63.6251 29.6928Z" fill="white"/>
<path d="M46.8038 31.1026C46.5998 31.1026 46.4344 30.9373 46.4344 30.7333V14.971C46.4344 14.767 46.2691 14.6016 46.0651 14.6016H40.4142C40.2103 14.6016 40.0449 14.4363 40.0449 14.2323V13.1799C40.0449 12.9759 40.2103 12.8105 40.4142 12.8105H54.322C54.5259 12.8105 54.6913 12.9759 54.6913 13.1799V14.2323C54.6913 14.4363 54.5259 14.6016 54.322 14.6016H48.6711C48.4671 14.6016 48.3018 14.767 48.3018 14.971V30.7333C48.3018 30.9373 48.1364 31.1026 47.9324 31.1026H46.8038Z" fill="white"/>
<path d="M31.9169 31.1026C31.7129 31.1026 31.5476 30.9373 31.5476 30.7333V23.5417C31.5476 23.4769 31.5305 23.4133 31.4981 23.3571L25.7318 13.3645C25.5897 13.1182 25.7674 12.8105 26.0516 12.8105H27.3586C27.4904 12.8105 27.6122 12.8808 27.6783 12.9949L32.1671 20.7547C32.3095 21.0008 32.665 21.0004 32.8069 20.7539L37.2716 12.9957C37.3375 12.8811 37.4596 12.8105 37.5917 12.8105H38.8994C39.1834 12.8105 39.3611 13.1177 39.2197 13.3639L33.4767 23.3573C33.4445 23.4133 33.4276 23.4768 33.4276 23.5414V30.7333C33.4276 30.9373 33.2622 31.1026 33.0583 31.1026H31.9169Z" fill="white"/>
<circle cx="13.3522" cy="19.9684" r="8.50635" stroke="white" stroke-width="0.738642"/>
<path d="M15.2901 10.5921C17.2282 9.55561 17.9592 7.1442 16.9227 5.20606C15.8862 3.26792 13.4748 2.53698 11.5367 3.57347C9.59852 4.60996 8.86758 7.02137 9.90407 8.95951C10.9406 10.8976 13.352 11.6286 15.2901 10.5921Z" fill="white"/>
<path d="M5.73637 13.6255L5.22399 14.6065C5.05689 14.9264 5.18231 15.3211 5.50349 15.4858L13.2476 19.4602C13.5659 19.6236 13.9461 19.6098 14.2517 19.4238L23.0979 14.0377C24.4495 13.2148 24.6793 11.3463 23.5674 10.2202C22.7549 9.39758 21.4785 9.25408 20.5039 9.87598L12.9657 14.685L10.4631 12.6505C8.93378 11.4071 6.64873 11.8786 5.73637 13.6255Z" fill="white"/>
<path d="M24.4768 17.8282L23.9213 16.8709C23.7401 16.5588 23.3396 16.4539 23.0286 16.6372L15.531 21.0589C15.2228 21.2407 15.0313 21.5695 15.0253 21.9272L14.8506 32.2827C14.8239 33.8648 16.2806 35.0576 17.8263 34.7195C18.9557 34.4724 19.7591 33.4702 19.7544 32.3141L19.7178 23.3726L22.7751 22.3445C24.6433 21.7163 25.4658 19.5331 24.4768 17.8282Z" fill="white"/>
<path d="M3.22771 18.2941L3.76869 17.3286C3.94502 17.0138 4.34414 16.903 4.65777 17.0814L12.2208 21.3904C12.5316 21.5675 12.7281 21.8934 12.7394 22.2509L13.0692 32.6025C13.1196 34.184 11.681 35.3986 10.1302 35.0837C8.99724 34.8537 8.17896 33.8635 8.16631 32.7075L8.0688 23.7664L4.99653 22.7842C3.11952 22.1842 2.26421 20.0135 3.22771 18.2941Z" fill="white"/>
</svg>
